<svg width="25" height="24" viewBox="0 0 25 24" fill="none" xmlns="http://www.w3.org/2000/svg">
<g clip-path="url(#clip0_1443_3827)">
<path d="M14.9 2.4001C14.9 2.11192 14.745 1.84602 14.4943 1.704C14.2435 1.56197 13.9357 1.56579 13.6886 1.71398L5.87854 6.39698H2.9C1.57395 6.39698 0.5 7.46917 0.5 8.79579V15.2001C0.5 16.526 1.57318 17.6001 2.9 17.6001H5.87842L13.6884 22.286C13.9356 22.4343 14.2433 22.4383 14.4942 22.2963C14.745 22.1542 14.9 21.8883 14.9 21.6001V2.4001Z" fill="#FCFCFC"/>
<path d="M21.632 11.9941L23.8937 14.2544L22.7627 15.3862L20.5001 13.1251L18.2376 15.3862L17.1067 14.2544L19.3684 11.9941L17.1062 9.73331L18.2372 8.60156L20.5001 10.8631L22.7632 8.60156L23.8942 9.73331L21.632 11.9941Z" fill="#FCFCFC"/>
</g>
<defs>
<clipPath id="clip0_1443_3827">
<rect width="24" height="24" fill="white" transform="translate(0.5)"/>
</clipPath>
</defs>
</svg>
